<svg width="114" height="114" viewBox="0 0 114 114" fill="none" xmlns="http://www.w3.org/2000/svg">
<path fill-rule="evenodd" clip-rule="evenodd" d="M76.7733 37.9052V36.9052H75.7733H38.032V1.5H112.178V75.6464H76.7733V37.9052ZM76.3249 76.6464H76.7733H112.178H113.178V75.6464V1.5V0.5H112.178H38.032H37.032V1.5V36.9052V37.3535H36.5837H1.17847H0.178467V38.3535V112.5V113.5H1.17847H75.3249H76.3249V112.5V77.0947V76.6464ZM75.7733 76.0947V75.6464V38.9052V37.9052H74.7733H38.032H37.5837V38.3535V75.0947V76.0947H38.5837H75.3249H75.7733ZM36.5837 76.0947V77.0947H37.5837H75.3249V112.5H1.17847V38.3535H36.5837V76.0947Z" fill="#C778DD"/>
</svg>
