<svg width="349" height="307" viewBox="0 0 349 307" fill="none" xmlns="http://www.w3.org/2000/svg">
<circle cx="2" cy="40" r="2" fill="#ABB2BF"/>
<circle cx="16.75" cy="40" r="2" fill="#ABB2BF"/>
<circle cx="31.5" cy="40" r="2" fill="#ABB2BF"/>
<circle cx="46.25" cy="40" r="2" fill="#ABB2BF"/>
<circle cx="61" cy="40" r="2" fill="#ABB2BF"/>
<circle cx="2" cy="54.75" r="2" fill="#ABB2BF"/>
<circle cx="16.75" cy="54.75" r="2" fill="#ABB2BF"/>
<circle cx="31.5" cy="54.75" r="2" fill="#ABB2BF"/>
<circle cx="46.25" cy="54.75" r="2" fill="#ABB2BF"/>
<circle cx="61" cy="54.75" r="2" fill="#ABB2BF"/>
<circle cx="2" cy="69.5" r="2" fill="#ABB2BF"/>
<circle cx="16.75" cy="69.5" r="2" fill="#ABB2BF"/>
<circle cx="31.5" cy="69.5" r="2" fill="#ABB2BF"/>
<circle cx="46.25" cy="69.5" r="2" fill="#ABB2BF"/>
<circle cx="61" cy="69.5" r="2" fill="#ABB2BF"/>
<circle cx="2" cy="84.25" r="2" fill="#ABB2BF"/>
<circle cx="16.75" cy="84.25" r="2" fill="#ABB2BF"/>
<circle cx="31.5" cy="84.25" r="2" fill="#ABB2BF"/>
<circle cx="46.25" cy="84.25" r="2" fill="#ABB2BF"/>
<circle cx="61" cy="84.25" r="2" fill="#ABB2BF"/>
<circle cx="2" cy="99" r="2" fill="#ABB2BF"/>
<circle cx="16.75" cy="99" r="2" fill="#ABB2BF"/>
<circle cx="31.5" cy="99" r="2" fill="#ABB2BF"/>
<circle cx="46.25" cy="99" r="2" fill="#ABB2BF"/>
<circle cx="61" cy="99" r="2" fill="#ABB2BF"/>
<circle cx="179" cy="145" r="2" fill="#ABB2BF"/>
<circle cx="193.75" cy="145" r="2" fill="#ABB2BF"/>
<circle cx="208.5" cy="145" r="2" fill="#ABB2BF"/>
<circle cx="223.25" cy="145" r="2" fill="#ABB2BF"/>
<circle cx="238" cy="145" r="2" fill="#ABB2BF"/>
<circle cx="179" cy="159.75" r="2" fill="#ABB2BF"/>
<circle cx="193.75" cy="159.75" r="2" fill="#ABB2BF"/>
<circle cx="208.5" cy="159.75" r="2" fill="#ABB2BF"/>
<circle cx="223.25" cy="159.75" r="2" fill="#ABB2BF"/>
<circle cx="238" cy="159.75" r="2" fill="#ABB2BF"/>
<circle cx="179" cy="174.5" r="2" fill="#ABB2BF"/>
<circle cx="193.75" cy="174.5" r="2" fill="#ABB2BF"/>
<circle cx="208.5" cy="174.5" r="2" fill="#ABB2BF"/>
<circle cx="223.25" cy="174.5" r="2" fill="#ABB2BF"/>
<circle cx="238" cy="174.5" r="2" fill="#ABB2BF"/>
<circle cx="179" cy="189.25" r="2" fill="#ABB2BF"/>
<circle cx="193.75" cy="189.25" r="2" fill="#ABB2BF"/>
<circle cx="208.5" cy="189.25" r="2" fill="#ABB2BF"/>
<circle cx="223.25" cy="189.25" r="2" fill="#ABB2BF"/>
<circle cx="238" cy="189.25" r="2" fill="#ABB2BF"/>
<circle cx="179" cy="204" r="2" fill="#ABB2BF"/>
<circle cx="193.75" cy="204" r="2" fill="#ABB2BF"/>
<circle cx="208.5" cy="204" r="2" fill="#ABB2BF"/>
<circle cx="223.25" cy="204" r="2" fill="#ABB2BF"/>
<circle cx="238" cy="204" r="2" fill="#ABB2BF"/>
<rect x="297.5" y="193.5" width="51" height="51" stroke="#ABB2BF"/>
<rect x="227.5" y="0.5" width="85" height="85" stroke="#ABB2BF"/>
<path fill-rule="evenodd" clip-rule="evenodd" d="M89.9743 218.026V217.026H88.9743H44.3763V175H132V262.624H89.9743V218.026ZM89.6237 263.624H89.9743H132H133V262.624V175V174H132H44.3763H43.3763V175V217.026V217.376H43.0257H1H0V218.376V306V307H1H88.6237H89.6237V306V263.974V263.624ZM88.9743 262.974V262.624V219.026V218.026H87.9743H44.3763H44.0257V218.376V261.974V262.974H45.0257H88.6237H88.9743ZM43.0257 262.974V263.974H44.0257H88.6237V306H1V218.376H43.0257V262.974Z" fill="#C778DD"/>
</svg>
