<svg width="155" height="155" viewBox="0 0 155 155" fill="none" xmlns="http://www.w3.org/2000/svg">
<path fill-rule="evenodd" clip-rule="evenodd" d="M104.692 51.3081V50.3081H103.692H51.5513V1H154V103.449H104.692V51.3081ZM104.449 104.449H104.692H154H155V103.449V1V0H154H51.5513H50.5513V1V50.3081V50.5513H50.3081H1H0V51.5513V154V155H1H103.449H104.449V154V104.692V104.449ZM103.692 103.692V103.449V52.3081V51.3081H102.692H51.5513H51.3081V51.5513V102.692V103.692H52.3081H103.449H103.692ZM50.3081 103.692V104.692H51.3081H103.449V154H1V51.5513H50.3081V103.692Z" fill="#C778DD"/>
</svg>
